<svg width="380" height="79" viewBox="0 0 380 79" fill="none" xmlns="http://www.w3.org/2000/svg">
<path d="M65.0037 33.0971C60.309 38.9305 61.4977 51.686 60.2791 53.7936C60.1792 53.9734 59.6997 53.3241 59.6897 53.0844C59.42 48.9391 59.1604 44.1446 58.2813 39.9993C56.8729 33.3069 53.9662 30.3302 47.3338 28.8619C43.0686 27.923 5.09171 27.6732 0.726668 27.4135C0.516906 27.4036 -0.112371 26.9441 0.0174813 26.8042C0.147334 26.6644 0.5269 26.3847 0.716685 26.3747C5.27151 26.085 43.1285 25.8653 47.5435 24.8664C54.5556 23.2882 57.0328 20.0119 58.4112 13.0898C59.1703 9.28412 59.4201 4.41964 59.6798 0.833706C59.6997 0.583989 59.9295 0.154474 59.9994 0.0346099C60.1093 -0.155175 60.6886 0.484105 60.6986 0.773777C60.9283 4.60942 61.188 9.19421 61.9472 13.1098C63.2157 19.6424 65.6829 23.1883 72.3454 24.7566C76.8902 25.8253 81.6648 26.0751 86.3495 26.3547C86.5692 26.3647 86.9588 26.6544 87.0487 26.8242C87.8278 28.4524 70.5274 26.2149 64.9937 33.0771L65.0037 33.0971Z" fill="#CEDBDE"/>
<path d="M65.0037 45.2846C60.309 51.118 61.4977 63.8735 60.2791 65.9811C60.1792 66.1609 59.6997 65.5116 59.6897 65.2719C59.42 61.1266 59.1604 56.332 58.2813 52.1867C56.8729 45.4943 53.9662 42.5177 47.3338 41.0494C43.0686 40.1104 5.09171 39.8607 0.726668 39.601C0.516906 39.5911 -0.112371 39.1316 0.0174813 38.9917C0.147334 38.8519 0.5269 38.5722 0.716685 38.5622C5.27151 38.2725 43.1285 38.0528 47.5435 37.0539C54.5556 35.4757 57.0328 32.1994 58.4112 25.2773C59.1703 21.4716 59.4201 16.6071 59.6798 13.0212C59.6997 12.7715 59.9295 12.342 59.9994 12.2221C60.1093 12.0323 60.6886 12.6716 60.6986 12.9613C60.9283 16.7969 61.188 21.3817 61.9472 25.2973C63.2157 31.8299 65.6829 35.3758 72.3454 36.9441C76.8902 38.0128 81.6648 38.2626 86.3495 38.5422C86.5692 38.5522 86.9588 38.8419 87.0487 39.0117C87.8278 40.6399 70.5274 38.4024 64.9937 45.2646L65.0037 45.2846Z" fill="#CEDBDE"/>
<path d="M65.0037 57.4603C60.309 63.2937 61.4977 76.0492 60.2791 78.1569C60.1792 78.3367 59.6997 77.6874 59.6897 77.4477C59.42 73.3024 59.1604 68.5078 58.2813 64.3625C56.8729 57.6701 53.9662 54.6935 47.3338 53.2252C43.0686 52.2862 5.09171 52.0365 0.726668 51.7768C0.516906 51.7668 -0.112371 51.3073 0.0174813 51.1675C0.147334 51.0277 0.5269 50.748 0.716685 50.738C5.27151 50.4483 43.1285 50.2286 47.5435 49.2297C54.5556 47.6515 57.0328 44.3752 58.4112 37.4531C59.1703 33.6474 59.4201 28.7829 59.6798 25.197C59.6997 24.9473 59.9295 24.5178 59.9994 24.3979C60.1093 24.2081 60.6886 24.8474 60.6986 25.137C60.9283 28.9727 61.188 33.5575 61.9472 37.473C63.2157 44.0056 65.6829 47.5516 72.3454 49.1198C76.8902 50.1886 81.6648 50.4383 86.3495 50.718C86.5692 50.728 86.9588 51.0177 87.0487 51.1875C87.8278 52.8156 70.5274 50.5782 64.9937 57.4404L65.0037 57.4603Z" fill="#CEDBDE"/>
<g clip-path="url(#clip0_230_1970)">
<path d="M142.596 54.7783C140.2 56.6282 137.229 57.555 133.675 57.555C130.566 57.555 127.778 56.8412 125.312 55.4099C122.845 53.9786 120.909 51.8559 119.5 49.0456C118.095 46.2316 117.393 42.8794 117.393 38.9779C117.393 35.0764 118.106 31.7354 119.538 28.9476C120.969 26.1597 122.916 24.052 125.386 22.6207C127.853 21.1894 130.614 20.4756 133.675 20.4756C137.128 20.4756 140.088 21.4248 142.558 23.3233C145.025 25.2217 146.531 27.7517 147.073 30.9095H157.581C157.088 26.9109 155.769 23.469 153.62 20.584C151.471 17.6989 148.683 15.5015 145.256 13.9955C141.826 12.4894 137.991 11.7383 133.746 11.7383C128.959 11.7383 124.568 12.7735 120.573 14.8475C116.578 16.9216 113.357 20.0159 110.913 24.1379C108.476 28.2562 107.254 33.2041 107.254 38.9779C107.254 44.7517 108.45 49.7744 110.845 53.8926C113.237 58.0147 116.443 61.109 120.468 63.183C124.489 65.2571 128.918 66.2923 133.754 66.2923C137.849 66.2923 141.587 65.5636 144.969 64.1098C148.347 62.6561 151.15 60.4849 153.37 57.5961C155.589 54.7073 157.021 51.1683 157.664 46.9753H147.08C146.49 50.3312 144.995 52.9322 142.603 54.7858L142.596 54.7783Z" fill="#CEDBDE"/>
<path d="M169.873 41.7891H165.729V48.8223H169.585C169.481 48.0076 169.428 47.1443 169.428 46.2325C169.428 44.6143 169.578 43.1344 169.869 41.7928L169.873 41.7891Z" fill="#CEDBDE"/>
<path d="M189.267 29.354C186.453 27.5789 183.048 26.6895 179.053 26.6895C175.058 26.6895 171.628 27.6163 168.765 29.4661C165.902 31.316 163.769 33.7339 162.363 36.7198C160.958 39.7057 160.252 42.9495 160.252 46.4512C160.252 49.9528 161.003 53.2116 162.509 56.2199C164.015 59.2283 166.22 61.6611 169.135 63.511C172.046 65.3609 175.499 66.2877 179.498 66.2877C182.704 66.2877 185.578 65.7682 188.119 64.733C190.661 63.6978 192.757 62.1806 194.413 60.1813C196.064 58.1819 197.088 55.8275 197.485 53.1107H188.232C187.787 54.7886 186.811 56.0966 185.309 57.0346C183.803 57.9726 181.964 58.4398 179.793 58.4398C176.587 58.4398 174.057 57.3672 172.207 55.2184C170.794 53.5815 169.924 51.4439 169.587 48.8168H165.731V41.7836H169.875C170.047 40.995 170.271 40.2551 170.544 39.5637C171.284 37.6877 172.383 36.2714 173.836 35.3072C175.29 34.3467 177.031 33.8647 179.053 33.8647C180.78 33.8647 182.26 34.1973 183.493 34.8625C184.726 35.5277 185.687 36.4657 186.378 37.6765C187.069 38.8873 187.488 40.2551 187.637 41.7836H169.871C169.576 43.1289 169.43 44.6088 169.43 46.2232C169.43 47.1351 169.483 47.9983 169.587 48.813H197.556C197.653 47.6769 197.705 46.5446 197.705 45.4085C197.705 42.2021 197.002 39.1676 195.597 36.305C194.192 33.4424 192.081 31.1254 189.27 29.3465L189.267 29.354Z" fill="#CEDBDE"/>
<path d="M210.738 57.9238H201.41V65.697H210.738V57.9238Z" fill="#CEDBDE"/>
<path d="M207.703 19.5114H201.41V57.925H210.738V11.7383H207.703V19.5114Z" fill="#CEDBDE"/>
<path d="M207.7 11.7383H201.41V19.5114H207.7V11.7383Z" fill="#CEDBDE"/>
<path d="M223.764 41.7891H219.619V48.8223H223.476C223.371 48.0076 223.319 47.1443 223.319 46.2325C223.319 44.6143 223.468 43.1344 223.76 41.7928L223.764 41.7891Z" fill="#CEDBDE"/>
<path d="M239.198 57.0343C237.692 57.9723 235.853 58.4394 233.682 58.4394C230.476 58.4394 227.946 57.3669 226.096 55.2181C224.683 53.5812 223.812 51.4436 223.476 48.8164H219.619V41.7832H223.764C223.936 40.9947 224.16 40.2547 224.433 39.5634C225.173 37.6874 226.271 36.271 227.725 35.3068C229.179 34.3464 230.92 33.8643 232.942 33.8643C234.669 33.8643 236.149 34.1969 237.382 34.8621C238.615 35.5273 239.575 36.4653 240.267 37.6762C240.958 38.887 241.377 40.2547 241.526 41.7832H223.76C223.465 43.1286 223.319 44.6085 223.319 46.2229C223.319 47.1347 223.371 47.998 223.476 48.8127H251.444C251.542 47.6766 251.594 46.5443 251.594 45.4082C251.594 42.2018 250.891 39.1673 249.486 36.3046C248.081 33.442 245.97 31.125 243.159 29.3462C240.345 27.5711 236.941 26.6816 232.946 26.6816C228.951 26.6816 225.52 27.6084 222.658 29.4583C219.795 31.3082 217.661 33.7261 216.256 36.712C214.851 39.6979 214.145 42.9417 214.145 46.4434C214.145 49.945 214.896 53.2038 216.402 56.2121C217.908 59.2205 220.113 61.6533 223.028 63.5032C225.939 65.353 229.392 66.2798 233.391 66.2798C236.597 66.2798 239.471 65.7604 242.012 64.7252C244.553 63.69 246.65 62.1728 248.305 60.1734C249.957 58.1741 250.981 55.8197 251.377 53.1029H242.124C241.679 54.7808 240.704 56.0888 239.202 57.0268L239.198 57.0343Z" fill="#CEDBDE"/>
<path d="M283.905 46.1561C281.906 44.4296 279.058 43.1963 275.355 42.4564L269.36 41.197C268.03 40.9504 267.002 40.5318 266.288 39.9376C265.571 39.3471 265.216 38.6072 265.216 37.7178C265.216 36.634 265.683 35.7707 266.621 35.128C267.559 34.4889 268.792 34.1675 270.321 34.1675C271.999 34.1675 273.49 34.5861 274.798 35.4269C276.106 36.2678 276.857 37.4263 277.055 38.9062H286.159C285.863 36.3911 284.985 34.2199 283.531 32.3924C282.074 30.5687 280.213 29.1598 277.944 28.1732C275.676 27.1867 273.135 26.6934 270.321 26.6934C267.507 26.6934 264.943 27.1867 262.772 28.1732C260.601 29.1598 258.923 30.494 257.738 32.1719C256.553 33.8499 255.963 35.6997 255.963 37.7215C255.963 41.1746 256.998 43.8018 259.072 45.603C261.146 47.4043 263.882 48.6749 267.286 49.4149L273.281 50.6743C274.615 50.9209 275.635 51.3544 276.352 51.971C277.066 52.5876 277.425 53.3911 277.425 54.3777C277.425 55.5624 276.846 56.5228 275.687 57.2627C274.529 58.0027 273.011 58.3727 271.135 58.3727C268.964 58.3727 267.137 57.756 265.657 56.5228C264.42 55.4914 263.672 54.3553 263.4 53.1183H254.236C254.438 55.5325 255.197 57.7075 256.516 59.6321C257.97 61.7547 259.958 63.3953 262.473 64.5538C264.988 65.7123 267.877 66.2953 271.132 66.2953C274.192 66.2953 276.917 65.7497 279.312 64.6659C281.704 63.5822 283.569 62.1135 284.899 60.2599C286.23 58.41 286.898 56.3733 286.898 54.1535C286.898 50.5509 285.901 47.8864 283.901 46.1599L283.905 46.1561Z" fill="#CEDBDE"/>
<path d="M304.066 15.957H294.738V27.2804H288.225V35.0536H294.738V53.5596C294.738 57.7041 295.96 60.8619 298.401 63.0331C300.845 65.2044 304.137 66.2882 308.282 66.2882C310.057 66.2882 311.637 66.1162 313.02 65.7687V57.7003C311.735 58.0441 310.528 58.2198 309.395 58.2198C307.814 58.2198 306.533 57.7265 305.546 56.7399C304.559 55.7533 304.066 54.3706 304.066 52.5955V35.0536H313.024V27.2804H304.066V15.957Z" fill="#CEDBDE"/>
<path d="M326.871 57.9238H317.543V65.697H326.871V57.9238Z" fill="#CEDBDE"/>
<path d="M321.542 27.2812H317.543V35.0544H321.542V27.2812Z" fill="#CEDBDE"/>
<path d="M331.497 28.8721C329.251 30.3295 327.708 32.142 326.871 34.3133V27.2801H321.542V35.0532H317.543V57.9242H326.871V51.5599C326.871 47.9088 327.353 44.8631 328.313 42.419C329.274 39.975 330.533 38.1886 332.088 37.0526C333.642 35.9165 335.38 35.3522 337.305 35.3522C338.587 35.3522 339.82 35.5017 341.004 35.7969V26.9138C340.362 26.7644 339.498 26.6934 338.415 26.6934C336.045 26.6934 333.739 27.4221 331.494 28.8758L331.497 28.8721Z" fill="#CEDBDE"/>
<path d="M378.682 58.2193C377.841 58.2193 377.225 57.9726 376.832 57.4793C376.436 56.986 376.242 56.1975 376.242 55.11V41.5631C376.242 38.5547 375.562 35.9275 374.205 33.6815C372.849 31.4356 370.924 29.709 368.431 28.5019C365.939 27.2949 363.016 26.6895 359.66 26.6895C356.305 26.6895 353.651 27.2351 351.259 28.3188C348.864 29.4063 346.954 30.9609 345.523 32.9827C344.092 35.0082 343.228 37.3738 342.933 40.0869H351.962C352.112 38.1623 352.889 36.6563 354.294 35.5725C355.699 34.4888 357.489 33.9431 359.66 33.9431C361.832 33.9431 363.584 34.4364 364.915 35.423C366.245 36.4096 366.914 37.6429 366.914 39.1227C366.914 39.9636 366.641 40.64 366.099 41.1595C365.558 41.6789 364.791 42.0115 363.805 42.1573L356.106 43.1924C351.813 43.7381 348.505 45.0311 346.188 47.079C343.867 49.1269 342.709 51.8289 342.709 55.1848C342.709 57.3074 343.288 59.2171 344.447 60.9212C345.605 62.6253 347.197 63.9445 349.219 64.8825C351.241 65.8205 353.535 66.2877 356.103 66.2877C358.965 66.2877 361.469 65.7794 363.614 64.7704C365.759 63.7576 367.254 62.3899 368.091 60.6633C368.338 62.4384 369.115 63.7988 370.423 64.733C371.731 65.671 373.394 66.1382 375.42 66.1382C376.799 66.1382 378.282 65.9887 379.859 65.6935V58.0698C379.415 58.1707 379.019 58.2193 378.675 58.2193H378.682ZM367.135 49.1157C367.135 52.0755 366.294 54.4934 364.62 56.3694C362.942 58.2454 360.621 59.1834 357.661 59.1834C355.983 59.1834 354.627 58.7761 353.591 57.9614C352.556 57.1467 352.037 56.0742 352.037 54.74C352.037 53.3087 352.504 52.1615 353.442 51.2982C354.38 50.4349 355.785 49.8557 357.661 49.5604L367.135 48.0058V49.1157Z" fill="#CEDBDE"/>
</g>
<defs>
<clipPath id="clip0_230_1970">
<rect width="272.613" height="54.5503" fill="white" transform="translate(107.254 11.7383)"/>
</clipPath>
</defs>
</svg>
