<svg width="88" height="88" viewBox="-0.5 -4.5 88 88" fill="none" xmlns="http://www.w3.org/2000/svg">
<path d="M65.0037 33.0971C60.309 38.9305 61.4977 51.686 60.2791 53.7936C60.1792 53.9734 59.6997 53.3241 59.6897 53.0844C59.42 48.9391 59.1604 44.1446 58.2813 39.9993C56.8729 33.3069 53.9662 30.3302 47.3338 28.8619C43.0686 27.923 5.09171 27.6732 0.726668 27.4135C0.516906 27.4036 -0.112371 26.9441 0.0174813 26.8042C0.147334 26.6644 0.5269 26.3847 0.716685 26.3747C5.27151 26.085 43.1285 25.8653 47.5435 24.8664C54.5556 23.2882 57.0328 20.0119 58.4112 13.0898C59.1703 9.28412 59.4201 4.41964 59.6798 0.833706C59.6997 0.583989 59.9295 0.154474 59.9994 0.0346099C60.1093 -0.155175 60.6886 0.484105 60.6986 0.773777C60.9283 4.60942 61.188 9.19421 61.9472 13.1098C63.2157 19.6424 65.6829 23.1883 72.3454 24.7566C76.8902 25.8253 81.6648 26.0751 86.3495 26.3547C86.5692 26.3647 86.9588 26.6544 87.0487 26.8242C87.8278 28.4524 70.5274 26.2149 64.9937 33.0771L65.0037 33.0971Z" fill="#CEDBDE"/>
<path d="M65.0037 45.2846C60.309 51.118 61.4977 63.8735 60.2791 65.9811C60.1792 66.1609 59.6997 65.5116 59.6897 65.2719C59.42 61.1266 59.1604 56.332 58.2813 52.1867C56.8729 45.4943 53.9662 42.5177 47.3338 41.0494C43.0686 40.1104 5.09171 39.8607 0.726668 39.601C0.516906 39.5911 -0.112371 39.1316 0.0174813 38.9917C0.147334 38.8519 0.5269 38.5722 0.716685 38.5622C5.27151 38.2725 43.1285 38.0528 47.5435 37.0539C54.5556 35.4757 57.0328 32.1994 58.4112 25.2773C59.1703 21.4716 59.4201 16.6071 59.6798 13.0212C59.6997 12.7715 59.9295 12.342 59.9994 12.2221C60.1093 12.0323 60.6886 12.6716 60.6986 12.9613C60.9283 16.7969 61.188 21.3817 61.9472 25.2973C63.2157 31.8299 65.6829 35.3758 72.3454 36.9441C76.8902 38.0128 81.6648 38.2626 86.3495 38.5422C86.5692 38.5522 86.9588 38.8419 87.0487 39.0117C87.8278 40.6399 70.5274 38.4024 64.9937 45.2646L65.0037 45.2846Z" fill="#CEDBDE"/>
<path d="M65.0037 57.4603C60.309 63.2937 61.4977 76.0492 60.2791 78.1569C60.1792 78.3367 59.6997 77.6874 59.6897 77.4477C59.42 73.3024 59.1604 68.5078 58.2813 64.3625C56.8729 57.6701 53.9662 54.6935 47.3338 53.2252C43.0686 52.2862 5.09171 52.0365 0.726668 51.7768C0.516906 51.7668 -0.112371 51.3073 0.0174813 51.1675C0.147334 51.0277 0.5269 50.748 0.716685 50.738C5.27151 50.4483 43.1285 50.2286 47.5435 49.2297C54.5556 47.6515 57.0328 44.3752 58.4112 37.4531C59.1703 33.6474 59.4201 28.7829 59.6798 25.197C59.6997 24.9473 59.9295 24.5178 59.9994 24.3979C60.1093 24.2081 60.6886 24.8474 60.6986 25.137C60.9283 28.9727 61.188 33.5575 61.9472 37.473C63.2157 44.0056 65.6829 47.5516 72.3454 49.1198C76.8902 50.1886 81.6648 50.4383 86.3495 50.718C86.5692 50.728 86.9588 51.0177 87.0487 51.1875C87.8278 52.8156 70.5274 50.5782 64.9937 57.4404L65.0037 57.4603Z" fill="#CEDBDE"/>
</svg>
